# xmcd
#
# Track frame offsets: 
#        150
#        18615
#        38957
#        49192
#        68565
#        88060
#        104250
#        122325
#        140192
#        165597
#        182967
#        199207
#        232447
#        256567
#
# Disc length: 3646 seconds
#
# Revision: 3
# Processed by: cddbd v1.5.2PL0 Copyright (c) Steve Scherf et al.
# Submitted via: ExactAudioCopy v1.1
#
DISCID=c80e3c0e
DTITLE=Luther Allison - Love Me Mama
DYEAR=1969
DGENRE=Blues
TTITLE0=Why I Love The Blues
TTITLE1=Little Red Rooster
TTITLE2=4:00 In The Morning (Waiting For You)
TTITLE3=You Done Lost Your Good Things (Alt)
TTITLE4=Five Long Years
TTITLE5=Dust My Broom
TTITLE6=Every Night About This Time
TTITLE7=Love Me Mama
TTITLE8=The Sky Is Crying
TTITLE9=Help Me
TTITLE10=You Done Lost Your Good Things Now
TTITLE11=Bloomington Closer
TTITLE12=Little Red Rooster (Alt)
TTITLE13=Walking From Door To Door
EXTD=
EXTT0=
EXTT1=
EXTT2=
EXTT3=
EXTT4=
EXTT5=
EXTT6=
EXTT7=
EXTT8=
EXTT9=
EXTT10=
EXTT11=
EXTT12=
EXTT13=
PLAYORDER=
